<?xml version="1.0" encoding="UTF-8"?>
<svg width="272px" height="115px" viewBox="0 0 272 115" version="1.1" xmlns="http://www.w3.org/2000/svg" xmlns:xlink="http://www.w3.org/1999/xlink">
    <!-- Generator: Sketch 43.1 (39012) - http://www.bohemiancoding.com/sketch -->
    <title>Group</title>
    <desc>Created with Sketch.</desc>
    <defs></defs>
    <g id="👀" stroke="none" stroke-width="1" fill="none" fill-rule="evenodd">
        <g id="Web" transform="translate(-474.000000, -343.000000)" fill="#FFFFFF">
            <g id="Group" transform="translate(474.000000, 343.000000)">
                <path d="M0.797514563,67.4455172 L12.7972039,64.8229885 C13.5295829,69.447686 14.7267231,72.7892617 16.3886602,74.8478161 C18.0505973,76.9063704 20.7688096,77.9356322 24.5433786,77.9356322 C27.7545792,77.9356322 30.3178674,77.3575537 32.2333204,76.2013793 C34.1487733,75.0452049 35.1064854,73.3391684 35.1064854,71.0832184 C35.1064854,68.7144709 34.1910253,66.8956385 32.3600777,65.6266667 C30.52913,64.3576948 26.3461815,62.7080561 19.8111068,60.6777011 C13.67039,58.7601437 9.31843353,56.4337302 6.7551068,53.6983908 C4.19178006,50.9630515 2.91013592,47.5932767 2.91013592,43.5889655 C2.91013592,38.9642681 4.69880412,35.0023153 8.27619417,31.7029885 C11.8535842,28.4036617 16.7125648,26.754023 22.8532816,26.754023 C28.4306298,26.754023 33.2332744,28.1075727 37.2613592,30.8147126 C41.2894441,33.5218526 43.8104804,37.5543027 44.8245437,42.9121839 L33.7544078,45.703908 C32.0079654,40.1204319 28.374293,37.3287356 22.8532816,37.3287356 C19.9237653,37.3287356 17.740745,37.8927147 16.3041553,39.0206897 C14.8675656,40.1486646 14.1492816,41.6432091 14.1492816,43.5043678 C14.1492816,45.252729 14.9661536,46.5921793 16.5999223,47.5227586 C18.233691,48.453338 22.4307235,50.0747777 29.1911456,52.3871264 C35.7262204,54.6430764 40.2049329,57.0822857 42.6274175,59.7048276 C45.0499021,62.3273694 46.2611262,65.8663379 46.2611262,70.3218391 C46.2611262,75.5669228 44.289366,79.9095613 40.3457864,83.3498851 C36.4022068,86.7902088 31.1347902,88.5103448 24.5433786,88.5103448 C17.8392933,88.5103448 12.4169527,86.7479103 8.27619417,83.2229885 C4.13543561,79.6980667 1.64256733,74.4389622 0.797514563,67.4455172 Z" id="S"></path>
                <path d="M172.252583,51.2662069 C176.308836,51.2662069 179.63266,49.6165682 182.224155,46.3172414 C184.81565,43.0179145 186.111379,37.7024121 186.111379,30.3705747 C186.111379,23.9411173 184.773398,19.0344997 182.097398,15.6505747 C179.421398,12.2666497 176.139825,10.5747126 172.252583,10.5747126 C168.309003,10.5747126 165.013347,12.2666497 162.365515,15.6505747 C159.717683,19.0344997 158.393786,23.9411173 158.393786,30.3705747 C158.393786,37.5896146 159.689515,42.8769181 162.28101,46.2326437 C164.872505,49.5883693 168.196329,51.2662069 172.252583,51.2662069 Z M172.252583,61.7563218 C168.872371,61.7563218 165.689387,61.1641439 162.703534,59.9797701 C159.717681,58.7953964 156.999469,57.0047629 154.548816,54.6078161 C152.098163,52.2108692 150.15457,48.9397908 148.717981,44.7944828 C147.281391,40.6491747 146.563107,35.8412534 146.563107,30.3705747 C146.563107,25.4638835 147.281391,21.0366481 148.717981,17.0887356 C150.15457,13.1408232 152.098163,9.94024215 154.548816,7.48689655 C156.999469,5.03355095 159.731765,3.17242014 162.745786,1.90344828 C165.759808,0.634476414 168.928708,-1.87844631e-14 172.252583,0 C175.576457,-1.87844631e-14 178.745357,0.634476414 181.759379,1.90344828 C184.7734,3.17242014 187.505696,5.03355095 189.95635,7.48689655 C192.407003,9.94024215 194.350595,13.1408232 195.787184,17.0887356 C197.223774,21.0366481 197.942058,25.4638835 197.942058,30.3705747 C197.942058,35.8412534 197.223774,40.6491747 195.787184,44.7944828 C194.350595,48.9397908 192.407003,52.2108692 189.95635,54.6078161 C187.505696,57.0047629 184.787484,58.7953964 181.801631,59.9797701 C178.815778,61.1641439 175.632794,61.7563218 172.252583,61.7563218 Z" id="O"></path>
                <path d="M101.009709,104.457011 C105.065962,104.457011 108.389786,102.807373 110.981282,99.508046 C113.572777,96.2087191 114.868505,90.8932167 114.868505,83.5613793 C114.868505,77.1319219 113.530525,72.2253043 110.854524,68.8413793 C108.178524,65.4574543 104.896951,63.7655172 101.009709,63.7655172 C97.0661291,63.7655172 93.7704728,65.4574543 91.1226408,68.8413793 C88.4748088,72.2253043 87.1509126,77.1319219 87.1509126,83.5613793 C87.1509126,90.7804192 88.4466408,96.0677227 91.0381359,99.4234483 C93.6296311,102.779174 96.9534554,104.457011 101.009709,104.457011 Z M101.009709,114.947126 C97.6294977,114.947126 94.4465133,114.354948 91.4606602,113.170575 C88.4748071,111.986201 85.7565948,110.195568 83.3059417,107.798621 C80.8552887,105.401674 78.9116965,102.130595 77.4751068,97.9852874 C76.0385171,93.8399793 75.320233,89.032058 75.320233,83.5613793 C75.320233,78.6546881 76.0385171,74.2274527 77.4751068,70.2795402 C78.9116965,66.3316278 80.8552887,63.1310467 83.3059417,60.6777011 C85.7565948,58.2243555 88.4888911,56.3632247 91.5029126,55.0942529 C94.5169342,53.825281 97.6858345,53.1908046 101.009709,53.1908046 C104.333583,53.1908046 107.502483,53.825281 110.516505,55.0942529 C113.530526,56.3632247 116.262823,58.2243555 118.713476,60.6777011 C121.164129,63.1310467 123.107721,66.3316278 124.544311,70.2795402 C125.9809,74.2274527 126.699184,78.6546881 126.699184,83.5613793 C126.699184,89.032058 125.9809,93.8399793 124.544311,97.9852874 C123.107721,102.130595 121.164129,105.401674 118.713476,107.798621 C116.262823,110.195568 113.54461,111.986201 110.558757,113.170575 C107.572904,114.354948 104.38992,114.947126 101.009709,114.947126 Z" id="O"></path>
                <polygon id="N" points="227.059262 88.2988506 227.059262 29.0804598 238.467417 29.0804598 260.10066 67.9108046 260.26967 67.9108046 260.26967 29.0804598 271.76233 29.0804598 271.76233 88.2988506 260.523184 88.2988506 238.636427 49.4685057 238.467417 49.4685057 238.467417 88.2988506"></polygon>
            </g>
        </g>
    </g>
</svg>