<?xml version="1.0" encoding="UTF-8"?>
<svg width="280px" height="129px" viewBox="0 0 280 129" version="1.1" xmlns="http://www.w3.org/2000/svg" xmlns:xlink="http://www.w3.org/1999/xlink">
    <!-- Generator: Sketch 43.2 (39069) - http://www.bohemiancoding.com/sketch -->
    <title>Logo</title>
    <desc>Created with Sketch.</desc>
    <defs></defs>
    <g id="👀" stroke="none" stroke-width="1" fill="none" fill-rule="evenodd">
        <g id="Web" transform="translate(-470.000000, -336.000000)" fill-rule="nonzero" fill="#FFFFFF">
            <g id="Header">
                <g id="Flickered" transform="translate(470.000000, 336.000000)">
                    <path d="M110.167374,88.6173913 C110.167374,90.5229423 110.160456,91.9850115 110.160456,91.9850115 C110.156318,93.2243077 109.150342,94.226087 107.914012,94.226087 L95.5334429,94.226087 C94.2989106,94.226087 93.2931539,93.2263886 93.2910388,91.993199 C93.2910388,91.993199 93.2881511,90.9901937 93.2881511,88.6173913 C93.2881511,74.368445 81.7161817,62.8173913 67.4414331,62.8173913 C53.1666857,62.8173913 41.5947163,74.368445 41.5947163,88.6173913 C41.5947163,91.0549719 41.5944397,91.9925271 41.5944397,91.9925271 C41.5942485,93.2199374 40.5913099,94.226087 39.3543509,94.226087 L26.9674871,94.226087 C25.7323272,94.226087 24.7344837,93.2205174 24.74276,91.9800859 C24.74276,91.9800859 24.7559335,90.5103238 24.7559335,88.6173913 C24.7559335,65.0756541 43.8759348,45.9913043 67.4616539,45.9913043 C91.0473718,45.9913043 110.167374,65.0756541 110.167374,88.6173913 Z M203.462242,88.6173913 C203.462242,90.5229423 203.455324,91.9850115 203.455324,91.9850115 C203.451186,93.2243077 202.44521,94.226087 201.208879,94.226087 L188.828311,94.226087 C187.593778,94.226087 186.588022,93.2263886 186.585906,91.993199 C186.585906,91.993199 186.583019,90.9901937 186.583019,88.6173913 C186.583019,74.368445 175.011049,62.8173913 160.736302,62.8173913 C146.461553,62.8173913 134.889584,74.368445 134.889584,88.6173913 C134.889584,91.0549719 134.889307,91.9925271 134.889307,91.9925271 C134.889117,93.2199374 133.886178,94.226087 132.649219,94.226087 L120.262355,94.226087 C119.027195,94.226087 118.029351,93.2205174 118.037628,91.9800859 C118.037628,91.9800859 118.050801,90.5103238 118.050801,88.6173913 C118.050801,65.0756541 137.170804,45.9913043 160.756522,45.9913043 C184.342239,45.9913043 203.462242,65.0756541 203.462242,88.6173913 Z M228.17827,126.758525 C228.17827,127.996457 227.174046,129 225.939291,129 L213.556488,129 C212.319935,129 211.317509,127.99905 211.317509,126.760964 L211.317509,2.23903617 C211.317509,1.00245115 212.321733,0 213.556488,0 L225.939291,0 C227.175846,0 228.17827,1.00711534 228.17827,2.24437453 L228.17827,78.5217391 L255.954301,45.47227 C256.754721,44.5198855 258.417869,43.7478261 259.645578,43.7478261 L278.766666,43.7478261 C280.004882,43.7478261 280.371484,44.5249883 279.587802,45.4808525 L246.308337,86.0721069 C245.917716,86.5485499 245.928968,87.3243514 246.324382,87.7941133 L279.565721,127.285755 C280.362632,128.232506 279.994374,129 278.766666,129 L259.645578,129 C258.407362,129 256.752201,128.224942 255.954301,127.275556 L228.17827,94.226087 L228.17827,126.758525 Z M0,2.23903617 C0,1.00245115 1.00422394,0 2.23897896,0 L14.6217822,0 C15.8583353,0 16.8607611,1.00095026 16.8607611,2.23903617 L16.8607611,126.760964 C16.8607611,127.997549 15.8565372,129 14.6217822,129 L2.23897896,129 C1.00242474,129 0,127.99905 0,126.760964 L0,2.23903617 Z" id="Logo"></path>
                </g>
            </g>
        </g>
    </g>
</svg>