<?xml version="1.0" encoding="UTF-8"?>
<svg width="252px" height="115px" viewBox="0 0 252 115" version="1.1" xmlns="http://www.w3.org/2000/svg" xmlns:xlink="http://www.w3.org/1999/xlink">
    <!-- Generator: Sketch 43.1 (39012) - http://www.bohemiancoding.com/sketch -->
    <title>logo</title>
    <desc>Created with Sketch.</desc>
    <defs></defs>
    <g id="👀" stroke="none" stroke-width="1" fill="none" fill-rule="evenodd">
        <g id="Web" transform="translate(-484.000000, -343.000000)" fill="#FFFFFF">
            <path d="M582.970272,422 C582.970272,423.698747 582.96412,425.002142 582.96412,425.002142 C582.96044,426.106941 582.06584,427 580.966389,427 L569.956526,427 C568.858674,427 567.964269,426.108796 567.962388,425.009441 C567.962388,425.009441 567.95982,424.115289 567.95982,422 C567.95982,409.297451 557.669033,399 544.974703,399 C532.280374,399 521.989587,409.297451 521.989587,422 C521.989587,424.173037 521.989341,425.008842 521.989341,425.008842 C521.989171,426.103045 521.097272,427 519.997262,427 L508.981801,427 C507.883391,427 506.996023,426.103562 507.003383,424.997751 C507.003383,424.997751 507.015098,423.687498 507.015098,422 C507.015098,401.01318 524.018242,384 544.992685,384 C565.967127,384 582.970272,401.01318 582.970272,422 Z M666.936065,422 C666.936065,423.698747 666.929913,425.002142 666.929913,425.002142 C666.926233,426.106941 666.031633,427 664.932182,427 L653.922319,427 C652.824467,427 651.930062,426.108796 651.928181,425.009441 C651.928181,425.009441 651.925613,424.115289 651.925613,422 C651.925613,409.297451 641.634826,399 628.940497,399 C616.246167,399 605.95538,409.297451 605.95538,422 C605.95538,424.173037 605.955134,425.008842 605.955134,425.008842 C605.954965,426.103045 605.063065,427 603.963055,427 L592.947594,427 C591.849184,427 590.961816,426.103562 590.969176,424.997751 C590.969176,424.997751 590.980891,423.687498 590.980891,422 C590.980891,401.01318 607.984036,384 628.958478,384 C649.93292,384 666.936065,401.01318 666.936065,422 Z M689.915676,456.001786 C689.915676,457.105369 689.022634,458 687.924584,458 L676.912734,458 C675.813085,458 674.921642,457.10768 674.921642,456.00396 L674.921642,344.99604 C674.921642,343.893658 675.814684,343 676.912734,343 L687.924584,343 C689.024234,343 689.915676,343.897816 689.915676,345.000799 L689.915676,413 L714.616503,383.537295 C715.328305,382.68827 716.807319,382 717.899103,382 L734.903214,382 C736.004341,382 736.330355,382.692819 735.633438,383.544946 L706.038485,419.730948 C705.691112,420.155684 705.701118,420.84729 706.052754,421.26607 L735.613802,456.471797 C736.322483,457.3158 735.994997,458 734.903214,458 L717.899103,458 C716.797975,458 715.326064,457.309057 714.616503,456.462705 L689.915676,427 L689.915676,456.001786 Z M484,344.99604 C484,343.893658 484.893042,343 485.991092,343 L497.002942,343 C498.102591,343 498.994034,343.89232 498.994034,344.99604 L498.994034,456.00396 C498.994034,457.106342 498.100992,458 497.002942,458 L485.991092,458 C484.891442,458 484,457.10768 484,456.00396 L484,344.99604 Z" id="logo"></path>
        </g>
    </g>
</svg>