<?xml version="1.0" encoding="UTF-8"?>
<svg width="64px" height="64px" viewBox="0 0 64 64" version="1.1" xmlns="http://www.w3.org/2000/svg" xmlns:xlink="http://www.w3.org/1999/xlink">
    <!-- Generator: Sketch 43.2 (39069) - http://www.bohemiancoding.com/sketch -->
    <title>Logo</title>
    <desc>Created with Sketch.</desc>
    <defs></defs>
    <g id="👀" stroke="none" stroke-width="1" fill="none" fill-rule="evenodd">
        <g id="Web" transform="translate(-60.000000, -860.000000)">
            <g id="Logo" transform="translate(60.000000, 860.000000)">
                <g id="Normal">
                    <rect id="Rectangle-3" stroke="#222222" stroke-width="3" x="1.5" y="1.5" width="61" height="61"></rect>
                    <path d="M51,38.9974404 L51,48.5 L51,36.9977021 C51,26.5067626 42.4934102,18 32,18 C21.5042825,18 13,26.5055609 13,36.9977021 L13,48.5 L13,38.9974404 C13.0000146,39.0006306 13,39.0038244 13,39.0070216 L13,40.9880725 C13,41.5540278 13.4472481,41.9973337 13.9989566,41.9973337 L15.0010434,41.9973337 C15.5573397,41.9973337 16,41.5454721 16,40.9880725 L16,39.0070216 C16,39.0038239 15.9999857,39.0006302 15.9999572,38.9974404 L16,36.9977021 C16,28.1613949 23.1619804,20.99968 32,20.99968 C40.8361212,20.99968 48,28.1630054 48,36.9977021 L48,38.9974404 C48.0000146,39.0006306 48,39.0038244 48,39.0070216 L48,40.9880725 C48,41.5540278 48.4472481,41.9973337 48.9989566,41.9973337 L50.0010434,41.9973337 C50.5573397,41.9973337 51,41.5454721 51,40.9880725 L51,39.0070216 C51,39.0038239 50.9999857,39.0006302 50.9999572,38.9974404 Z" id="Rectangle-4" fill="#222222" fill-rule="nonzero"></path>
                </g>
            </g>
        </g>
    </g>
</svg>